<?xml version="1.0" encoding="utf-8"?>
<!-- Generator: Adobe Illustrator 25.0.1, SVG Export Plug-In . SVG Version: 6.00 Build 0)  -->
<svg version="1.1" id="Layer_1" xmlns="http://www.w3.org/2000/svg" xmlns:xlink="http://www.w3.org/1999/xlink" x="0px" y="0px"
	 viewBox="0 0 1105.4 204.8" style="enable-background:new 0 0 1105.4 204.8;" xml:space="preserve">
<style type="text/css">
	.st0{fill:#005CA9;}
	.st1{fill:#242974;}
	.st2{fill:#00B8DE;}
</style>
<g>
	<polygon class="st0" points="1005,66.1 1005,197.2 954,168 954,95.6 	"/>
	<path class="st1" d="M1094.1,117.4v14.3c0,8.7-4.6,16.8-12.2,21.1l-25.8,14.9l-51.2-29.3L1094,87L1094.1,117.4z"/>
	<path class="st2" d="M1094.1,117.3v13.8l0,0c-0.2-8.6-4.8-16.5-12.3-20.8l0,0l-14.2-8.1l-16.3-9.3L1005,66.4V7.5l58.6,33.6l15,8.6
		c9.5,5.5,15.4,15.6,15.4,26.6v10.5L1094.1,117.3z"/>
</g>
<g>
	<path class="st1" d="M400.4,46.4c2.2,0.2,3.8-1.6,4-3.5c0-0.2,0-0.2,0-0.3c0.2-2.2-1.6-4.1-3.8-4.3c-2.2-0.2-4.1,1.6-4.3,3.8
		c-0.2,2.2,1.6,4.1,3.8,4.3C400.2,46.4,400.4,46.4,400.4,46.4z"/>
	<path class="st1" d="M388.9,46.4c2.2-0.2,3.7-1.8,3.5-4c-0.2-2.2-1.8-3.7-4-3.5c-2,0.2-3.5,1.8-3.5,3.8c0,2.2,1.7,3.8,3.8,3.8
		C388.8,46.4,388.8,46.4,388.9,46.4z"/>
	<path class="st1" d="M421.2,102.7c-2.2,0-4,1.7-4,3.8c0,0,0,0,0,0.2c0.2,2.2,2,4,4.3,3.8c2-0.2,3.7-1.7,3.8-3.8
		C425.2,104.5,423.3,102.7,421.2,102.7L421.2,102.7z"/>
	<path class="st1" d="M432.7,102.7c-2.2-0.2-4,1.6-4,3.7c0,0,0,0,0,0.2c0.2,2.2,2,4,4.3,3.8c2-0.2,3.7-1.7,3.8-3.8
		C436.7,104.5,434.9,102.7,432.7,102.7L432.7,102.7z"/>
	<path class="st1" d="M474.9,40.3c-2.2-0.2-4,1.6-4,3.7v0.2c-0.2,2.2,1.6,4.1,3.8,4.3c2.2,0.2,4.1-1.6,4.3-3.8
		c0.2-2.2-1.6-4.1-3.8-4.3C475.1,40.3,475.1,40.3,474.9,40.3z"/>
	<path class="st1" d="M463.4,47.8c2.2,0.2,4-1.4,4-3.5c0-0.2,0-0.2,0-0.3c-0.2-2.2-2-4-4.3-3.8c-2,0.2-3.7,1.7-3.8,3.8
		c0,2.2,1.7,3.8,3.7,3.8C463.3,47.8,463.3,47.8,463.4,47.8z"/>
	<path class="st1" d="M446.9,75.3L446.9,75.3c-0.2,4.5,1.4,8.9,4.3,12.2h-21.1V56.2h-6.7v31.3h-17.9V52.6h-6.7V56h-3.2
		c-13.4,0-22,7.7-22,19.1l0,0c0,11.4,8.4,18.9,21.1,18.9h84.2V56.2h-10C455.6,56.2,446.9,63.9,446.9,75.3z M398.7,87.6h-4.6
		c-8.4,0-14.2-4.7-14.2-12.2l0,0c0-7.7,5.9-12.6,14.2-12.6h4.6V87.6z M472.1,87.6h-4.6c-8.3,0-14.2-4.7-14.2-12.2l0,0
		c0-7.7,5.9-12.6,14.2-12.6h4.6V87.6z"/>
	<path class="st1" d="M546.1,43.8c1.8-0.2,3.4-1.7,3.2-3.7c-0.2-1.8-1.7-3.4-3.7-3.2c-1.8,0.2-3.2,1.7-3.2,3.5
		C542.4,42.5,543.9,44,546.1,43.8C545.9,43.8,545.9,43.8,546.1,43.8z"/>
	<path class="st1" d="M547.8,48.9c-0.2,2.2,1.6,4,3.7,4.1c2.2,0.2,4-1.6,4.1-3.7c0.2-2.2-1.6-4-3.7-4.1h-0.2c-2-0.2-3.8,1.4-3.8,3.5
		C547.8,48.7,547.8,48.7,547.8,48.9z"/>
	<path class="st1" d="M540.3,52.5c2-0.2,3.7-1.8,3.5-4c-0.2-2-1.8-3.7-4-3.5c-2,0.2-3.5,1.7-3.5,3.7s1.7,3.7,3.7,3.7
		C540.2,52.5,540.3,52.5,540.3,52.5z"/>
	<path class="st1" d="M594.6,87.6h-7.8c-6.5,0-10-4-10-11.6V55.8h-6.7v21.9c0,7.2-4,10.7-10.4,10.7c-6.1,0-10.2-3.8-10.2-10.1V60.8
		h-6.7v16.4c0,7.2-5.1,10.4-10.7,10.4H524V60.8h-6.7v26.8H501V56.2h-6.7v39.5c0,5.7-2.6,7.7-6.5,7.7c-1.8,0-3.5-0.2-5.3-0.4l0.6,5.9
		c1.7,0.4,3.5,0.6,5.3,0.8c8.4,0,12.7-3.4,12.7-14.7v-0.3h31.3c6.7,0,11.4-2.8,13.4-7.8c1.8,5.3,7.3,8.4,14.1,8.4
		c7.3,0,12.2-2.4,14.8-7.5c2,4.1,6.1,6.7,12,6.9h14.8V38.7h-6.7V87.6z"/>
	<rect x="613.3" y="38.7" class="st1" width="6.7" height="55.7"/>
	<path class="st1" d="M675.9,60.8L675.9,60.8c-10.4,0-17.6,6.7-18.9,17.3c-10.6,0.3-16.7,6.9-16.7,18.5v12.8h6.7V97.7
		c0-7.8,3.4-12.6,10-12.8c1.2,10.2,8.6,17,18.7,17l0,0c11.4,0,18.9-8.1,18.9-20.2l0,0C694.9,69.1,687.2,60.8,675.9,60.8z
		 M688.2,81.5c0,8.1-4.9,13.6-12,13.6l0,0c-7.3,0-12-5.3-12-13.6l0,0c0-8.3,4.9-13.8,12-13.8l0,0C683.3,67.7,688.2,73.2,688.2,81.5z
		"/>
	<path class="st1" d="M760.7,102.7c-2.2-0.2-4,1.6-4,3.7v0.2c0.2,2.2,2,4,4.3,3.8c2-0.2,3.7-1.7,3.8-3.8
		C764.7,104.5,762.8,102.7,760.7,102.7L760.7,102.7z"/>
	<path class="st1" d="M749.2,102.7c-2.2,0-4,1.7-4,3.8c0,0,0,0,0,0.2c0.2,2.2,2,4,4.3,3.8c2-0.2,3.7-1.7,3.8-3.8
		C753.2,104.5,751.4,102.7,749.2,102.7L749.2,102.7z"/>
	<path class="st1" d="M779.5,47.2c2,0.2,3.8-1.6,3.8-3.5c0-0.2,0-0.2,0-0.3c0-2.2-1.7-3.8-3.7-3.8h-0.2c-2.2-0.2-4,1.6-4.1,3.5v0.2
		c0,2.2,1.7,3.8,3.8,3.8C779.4,47.2,779.5,47.2,779.5,47.2z"/>
	<path class="st1" d="M810.1,102.7c-2.2-0.2-4,1.6-4,3.7c0,0,0,0,0,0.2c0.2,2.2,2,4,4.3,3.8c2-0.2,3.7-1.7,3.8-3.8
		C814,104.5,812.2,102.7,810.1,102.7L810.1,102.7z"/>
	<path class="st1" d="M798.5,102.7c-2.2,0-4,1.7-4,3.8c0,0,0,0,0,0.2c0.2,2.2,2,4,4.3,3.8c2-0.2,3.7-1.7,3.8-3.8
		C802.5,104.5,800.8,102.7,798.5,102.7C798.6,102.7,798.5,102.7,798.5,102.7z"/>
	<path class="st1" d="M829.4,47.8c2.2,0.2,4-1.4,4-3.5c0-0.2,0-0.2,0-0.3c-0.2-2.2-2-4-4.3-3.8c-2,0.2-3.7,1.7-3.8,3.8
		c0,2.2,1.7,3.8,3.7,3.8C829.3,47.8,829.3,47.8,829.4,47.8z"/>
	<path class="st1" d="M831.7,87.6h-24.2V56.2h-6.7v31.3h-17.9V56.2h-6.7v31.3h-17.9V56.2h-6.7v31.3h-17.9V56.2h-10.1
		c-13.4,0-22,7.7-22,19.1l0,0c0,11.4,8.4,18.9,21.1,18.9h4v0.6c0,5.9-3.7,7.7-9,7.7c-4.1,0-8.1-0.8-12-2.2l1.2,7.2
		c3.5,1.2,7.2,1.8,10.8,1.8c10,0,15.3-3.8,15.5-15.2h105.1v-38h-6.7L831.7,87.6L831.7,87.6L831.7,87.6z M726.6,87.6H722
		c-8.4,0-14.2-4.7-14.2-12.2l0,0c0-7.7,5.9-12.6,14.2-12.6h4.6V87.6z"/>
	<path class="st1" d="M840.9,40.3c-2.2-0.2-4,1.6-4,3.7v0.2c-0.2,2.2,1.6,4.1,3.8,4.3c2.3,0.2,4.1-1.6,4.3-3.8
		c0.2-2.2-1.6-4.1-3.8-4.3C841.1,40.3,840.9,40.3,840.9,40.3z"/>
	<rect x="856.1" y="45.6" class="st1" width="6.7" height="36.8"/>
	<path class="st1" d="M900.9,56.2v31.3H894c-6.5,0-10-4-10-11.6V33.6h-6.7v43.1c0,7.1-4.6,10.8-12.6,10.8h-19.6l1.4,6.7H864
		c8.6,0,14.6-2.6,17.6-7.7c1.7,4.6,6.1,7.7,12.4,7.7h13.8V56.2H900.9z"/>
	<path class="st1" d="M900.9,102.7c-2.2,0-3.8,1.7-3.8,3.8s1.7,3.8,3.8,3.8c2.2,0,3.8-1.7,3.8-3.8S902.9,102.7,900.9,102.7z"/>
	<path class="st1" d="M64.3,60.8L64.3,60.8c-10.2,0-17.5,6.7-18.7,17.1c-10.4,0.3-16.5,6.9-16.5,18.5v12.7h6.5V97.6
		c0-7.7,3.2-12.4,9.8-12.8c1.2,10.2,8.4,16.9,18.7,16.9l0,0c11.4,0,18.9-8.1,18.9-20.2l0,0C83.1,69.1,75.6,60.8,64.3,60.8z
		 M76.3,81.4c0,8.1-4.9,13.4-12,13.4l0,0c-7.2,0-12-5.3-12-13.4l0,0c0-8.3,4.9-13.8,12-13.8l0,0C71.6,67.4,76.3,73.1,76.3,81.4
		L76.3,81.4z"/>
	<rect x="92.1" y="38.8" class="st1" width="6.7" height="55.4"/>
	<path class="st1" d="M166.8,47.8c2.2-0.2,3.7-1.8,3.5-4c-0.2-2.2-1.8-3.7-4-3.5c-2,0.2-3.5,1.7-3.5,3.8s1.7,3.8,3.8,3.8
		C166.6,47.8,166.8,47.8,166.8,47.8z"/>
	<path class="st1" d="M178.3,47.8c2.2,0.2,3.8-1.4,4-3.5c0.2-2.1-1.4-3.8-3.5-4c-0.2,0-0.3,0-0.4,0c-2.2-0.2-3.8,1.4-4,3.5
		c-0.2,2.1,1.4,3.8,3.5,4C178,47.8,178.2,47.8,178.3,47.8z"/>
	<path class="st1" d="M197.7,47.8c2.2-0.2,3.7-1.8,3.5-4s-1.8-3.7-4-3.5c-2,0.2-3.5,1.7-3.5,3.8s1.7,3.8,3.8,3.8
		C197.5,47.8,197.7,47.8,197.7,47.8z"/>
	<path class="st1" d="M209.2,47.8c2.2,0.2,3.8-1.4,4-3.5s-1.4-3.8-3.5-4c-0.2,0-0.3,0-0.4,0c-2.2-0.2-3.8,1.4-4,3.5
		c-0.2,2.2,1.4,3.8,3.5,4C208.9,47.8,209.1,47.8,209.2,47.8z"/>
	<path class="st1" d="M278.4,77.3c0,7.1-3.8,10.7-10.2,10.7c-6.1,0-10.2-3.8-10.2-10.1V60.8h-6.7v16.4c0,7.2-5.1,10.4-10.7,10.4
		h-8.1V60.8h-6.7v26.6H207V56.2h-6.7v31.3h-18V56.2h-9.8c-13.4,0-21.9,7.7-21.9,19.1l0,0c-0.2,4.5,1.4,8.7,4.3,12.2h-17.3v-14
		c0-11.4-5.5-17.5-17.1-17.5h-1.7v6.7h2.6c6.5,0,10,3.2,10,10.1v14.4h-24.6v6.8h133.9c6.5,0,11.4-2.8,13.4-7.7
		c1.8,5.2,7.3,8.4,14.1,8.4c11.4,0,17-5.9,17-18.1v-21h-6.7L278.4,77.3z M175.5,87.5h-4.6c-8.3,0-14.1-4.7-14.1-12.2l0,0
		c0-7.7,5.9-12.4,14.1-12.4h4.6V87.5z"/>
	<rect x="302" y="45.6" class="st1" width="6.7" height="36.8"/>
	<path class="st1" d="M347.5,38.8v48.8h-7.8c-6.3,0-9.8-4-9.8-11.4V33.8h-6.7v43c0,7.1-4.6,10.8-12.6,10.8h-19.5l1.2,6.7h17.5
		c8.6,0,14.4-2.4,17.5-7.7c1.7,4.6,6.1,7.7,12.4,7.7h14.6V38.8H347.5z"/>
	<path class="st1" d="M56.9,134.4c5.7,5.2,5.9,14.1,0.8,19.6c-0.2,0.3-0.4,0.4-0.8,0.8c-2.9,2.4-7.1,3.7-12.2,3.7h-9.8v12h-5.7
		v-39.8h15.6C49.9,130.8,53.8,132,56.9,134.4z M52.8,151.3c3.7-3.5,3.8-9.3,0.3-13c-0.2-0.2-0.2-0.2-0.3-0.3
		c-2.4-1.7-5.3-2.4-8.3-2.3h-9.6v17.9h9.6C47.4,153.7,50.3,153,52.8,151.3L52.8,151.3z"/>
	<path class="st1" d="M69.3,128.3h5.5v42.3h-5.5C69.3,170.6,69.3,128.3,69.3,128.3z"/>
	<path class="st1" d="M105.9,143.2c2.2,2,3.4,5.1,3.4,9.2v18.2H104v-4c-1,1.4-2.3,2.6-3.8,3.2c-1.8,0.8-4,1.2-5.9,1
		c-2.9,0.2-5.9-0.8-8.1-2.4c-2-1.6-3.1-4-3.1-6.5c-0.2-2.4,1-4.9,2.9-6.5c2-1.7,5.1-2.4,9.2-2.4h8.7v-1c0.2-2-0.6-4-2-5.3
		c-1.7-1.4-3.8-2-5.9-1.8c-1.8,0-3.5,0.3-5.2,1c-1.6,0.4-3.1,1.4-4.3,2.3l-2.3-4.1c1.7-1.2,3.5-2.3,5.5-2.9c2.3-0.6,4.6-1,6.9-1
		C99.7,139.9,103.2,141.1,105.9,143.2z M100.4,165.4c1.6-1,2.6-2.3,3.4-4v-4.3h-8.4c-4.6,0-6.9,1.6-6.9,4.6c0,1.4,0.6,2.8,1.8,3.7
		c1.4,1,3.2,1.4,4.9,1.4C97,166.8,98.9,166.3,100.4,165.4z"/>
	<path class="st1" d="M136.3,168.9c-1,0.8-1.8,1.2-2.9,1.6c-1.2,0.3-2.4,0.6-3.7,0.6c-2.6,0.2-5.2-0.8-7.1-2.4
		c-1.8-1.8-2.6-4.5-2.4-7.1v-16.5H115v-4.5h5.1v-6.7h5.5v6.5h8.6v4.5h-8.7v16.4c-0.2,1.4,0.3,2.8,1.2,3.8c1,1,2.2,1.4,3.5,1.4
		c1.6,0,3.1-0.4,4.3-1.4L136.3,168.9z"/>
	<path class="st1" d="M143,133.6c-0.8-0.6-1-1.6-1-2.4c0-1,0.3-1.8,1-2.4c0.8-0.8,1.7-1,2.6-1c1,0,2,0.3,2.6,1c0.8,0.6,1,1.6,1,2.4
		c0,1-0.3,1.8-1,2.6C146.7,134.9,144.5,134.9,143,133.6L143,133.6z M142.8,140.5h5.5v30.1h-5.5V140.5z"/>
	<path class="st1" d="M183.9,143.5c2.3,2.2,3.4,5.5,3.4,9.8v17.3h-5.5v-16.7c0.2-2.4-0.6-4.7-2.2-6.5c-1.7-1.6-3.8-2.3-5.9-2.3
		c-2.6-0.2-5.1,0.8-7.1,2.6c-1.8,2-2.8,4.7-2.6,7.5v15.5h-5.3v-30.3h5.2v4.6c1-1.6,2.8-2.8,4.5-3.7c2-1,4.3-1.2,6.5-1.2
		C178.3,139.9,181.5,141.2,183.9,143.5z"/>
	<path class="st1" d="M225.6,140.5v30.1h-5.2V166c-1,1.6-2.6,2.8-4.5,3.7c-1.8,1-3.8,1.2-5.9,1.2c-3.5,0.2-6.9-1-9.5-3.4
		c-2.3-2.3-3.5-5.5-3.5-9.8v-17.2h5.5v16.7c-0.2,2.4,0.6,4.7,2.2,6.5c1.6,1.6,3.8,2.4,5.9,2.3c2.6,0.2,5.1-0.8,6.9-2.6
		c1.8-2,2.6-4.7,2.4-7.3v-15.5H225.6z"/>
	<path class="st1" d="M282.8,143.5c2.3,2.2,3.4,5.5,3.4,9.8v17.3h-5.5v-16.7c0.2-2.4-0.6-4.7-2-6.5c-1.6-1.6-3.7-2.3-5.9-2.3
		c-2.4-0.2-4.9,0.8-6.5,2.6c-1.7,2-2.6,4.7-2.4,7.5v15.5h-5.5V154c0.2-2.4-0.6-4.7-2-6.5c-1.6-1.6-3.7-2.3-5.9-2.3
		c-2.4-0.2-4.9,0.8-6.5,2.6c-1.7,2-2.6,4.7-2.4,7.5v15.5H236v-30.3h5.2v4.5c1-1.6,2.6-2.8,4.3-3.5c2-1,4-1.2,6.1-1.2
		s4.3,0.4,6.3,1.4c1.8,1,3.2,2.3,4.3,4.1c1.2-1.8,2.8-3.2,4.7-4.1c2.2-1,4.5-1.6,6.9-1.6C277.2,139.9,280.4,141.2,282.8,143.5z"/>
	<path class="st1" d="M341.3,165.7v4.9h-28.9v-39.8h28.2v4.9H318v12.2h20.1v4.9H318v12.8L341.3,165.7z"/>
	<path class="st1" d="M369.8,143.2c2.2,2,3.4,5.1,3.4,9.2v18.2H368v-4c-1,1.4-2.3,2.6-3.8,3.2c-1.8,0.8-4,1.2-5.9,1
		c-2.9,0.2-5.9-0.8-8.1-2.4c-2-1.6-3.1-4-3.1-6.5c-0.2-2.4,1-4.9,2.9-6.5s5.1-2.4,9.2-2.4h8.6v-1c0.2-2-0.6-4-2-5.3
		c-1.7-1.4-3.8-2-5.9-1.8c-1.8,0-3.5,0.3-5.2,1c-1.6,0.4-3.1,1.4-4.3,2.3l-2.3-4.1c1.7-1.2,3.5-2.3,5.5-2.9c2.3-0.6,4.6-1,6.9-1
		C363.6,139.9,367.2,141.1,369.8,143.2z M364.4,165.4c1.6-1,2.6-2.3,3.4-4v-4.3h-8.6c-4.6,0-6.9,1.6-6.9,4.6c0,1.4,0.6,2.8,1.7,3.7
		c1.4,1,3.2,1.4,4.9,1.4C360.9,166.8,362.7,166.3,364.4,165.4z"/>
	<path class="st1" d="M384.7,170c-2-0.4-3.7-1.4-5.3-2.4l2.3-4.3c1.6,1,3.1,1.8,4.9,2.3c1.8,0.6,3.8,1,5.9,1c4.7,0,7.2-1.4,7.2-4.1
		c0-0.8-0.3-1.7-1-2.2c-0.8-0.6-1.6-1-2.4-1.2c-1-0.3-2.3-0.4-4.1-0.8c-2-0.3-4-0.8-5.9-1.4c-1.6-0.4-2.9-1.4-4-2.4
		c-1.2-1.4-1.7-3.2-1.7-4.9c0-2.6,1.2-5.1,3.4-6.5c2.8-1.8,5.9-2.6,9.2-2.4c2,0,4.1,0.3,5.9,0.8c1.7,0.4,3.4,1,4.9,2l-2.3,4.3
		c-2.6-1.7-5.7-2.4-8.7-2.4c-1.8-0.2-3.7,0.3-5.2,1c-1,0.6-1.8,1.8-1.8,3.1c0,1,0.3,1.7,1,2.3c0.7,0.6,1.6,1,2.4,1.2
		c1,0.3,2.4,0.6,4.3,1c2,0.3,4,0.8,5.9,1.4c1.6,0.4,2.8,1.2,3.8,2.4c1,1.4,1.7,3.1,1.6,4.7c0,2.6-1.2,5.1-3.5,6.5
		c-2.9,1.7-6.1,2.6-9.5,2.4C389.5,170.9,387.1,170.6,384.7,170z"/>
	<path class="st1" d="M428.7,168.9c-1,0.8-1.8,1.2-2.9,1.6c-1.2,0.3-2.4,0.6-3.7,0.6c-2.6,0.2-5.2-0.8-7.1-2.4
		c-1.8-1.8-2.6-4.5-2.4-7.1v-16.5h-5.1v-4.5h5.1v-6.7h5.5v6.5h8.6v4.5h-8.6v16.4c-0.2,1.4,0.3,2.8,1.2,3.8c1,1,2.2,1.4,3.5,1.4
		c1.6,0,3.1-0.4,4.3-1.4L428.7,168.9z"/>
	<path class="st1" d="M461.5,157.2H437c0.3,2.4,1.6,4.7,3.5,6.5c2.2,1.7,4.7,2.4,7.5,2.4c3.4,0.2,6.5-1.2,8.7-3.7l3.1,3.5
		c-1.4,1.7-3.1,2.9-5.1,3.7c-2.2,1-4.5,1.2-6.7,1.2c-2.9,0-5.9-0.6-8.4-2c-2.4-1.2-4.5-3.2-5.7-5.5c-2.6-4.9-2.6-10.8,0-15.9
		c1.2-2.3,3.1-4.1,5.3-5.5c2.3-1.4,5.1-2,7.8-2c2.8,0,5.3,0.6,7.7,2c2.3,1.2,4.1,3.2,5.3,5.5c1.4,2.4,2,5.2,1.8,8.1
		C461.6,156.2,461.6,156.8,461.5,157.2z M440,147.2c-1.8,1.7-2.9,3.8-3.1,6.3h19.3c-0.2-2.4-1.4-4.6-3.1-6.3
		C449.5,144,444,144,440,147.2L440,147.2z"/>
	<path class="st1" d="M478.6,141.5c2.2-1,4.5-1.4,6.7-1.4v5.3c-0.3,0-0.8,0-1.2,0c-2.6-0.2-5.1,0.8-6.9,2.6
		c-1.8,2.2-2.8,4.7-2.6,7.5v15h-5.5v-30.1h5.2v5.1C475.4,143.8,476.8,142.4,478.6,141.5z"/>
	<path class="st1" d="M517.3,143.5c2.3,2.2,3.4,5.5,3.4,9.8v17.3h-5.3v-16.7c0.2-2.4-0.6-4.7-2.2-6.5c-1.7-1.6-3.8-2.3-5.9-2.3
		c-2.6-0.2-5.1,0.8-7.1,2.6c-1.8,2-2.8,4.7-2.6,7.5v15.5h-5.5v-30.2h5.2v4.6c1-1.6,2.8-2.8,4.5-3.7c2-1,4.1-1.2,6.5-1.2
		C511.5,139.9,514.8,141.2,517.3,143.5z"/>
	<path class="st1" d="M573.7,170.6l-8.6-12.2c-1,0-1.8,0.2-2.4,0.2h-9.8v12h-5.9v-39.8h15.5c5.2,0,9.2,1.2,12.2,3.7
		c2.9,2.4,4.6,6.3,4.5,10.1c0.2,2.8-0.8,5.5-2.3,7.8c-1.6,2.3-3.8,3.8-6.5,4.7l9.5,13.4L573.7,170.6z M570.6,151.3
		c3.7-3.5,3.8-9.3,0.3-13c-0.2-0.2-0.2-0.2-0.3-0.3c-2.4-1.7-5.3-2.4-8.3-2.3h-9.6v17.9h9.6C565.2,153.7,568.1,153,570.6,151.3
		L570.6,151.3z"/>
	<path class="st1" d="M614.6,157.2h-24.4c0.3,2.4,1.6,4.7,3.5,6.5c2.2,1.7,4.7,2.4,7.5,2.4c3.4,0.2,6.5-1.2,8.7-3.7l3.1,3.5
		c-1.4,1.6-3.1,2.9-5.1,3.7c-2.2,1-4.5,1.2-6.9,1.2c-2.9,0-5.9-0.6-8.4-2c-2.4-1.2-4.5-3.2-5.7-5.5c-2.6-4.9-2.6-10.8,0-15.9
		c1.2-2.3,3.1-4.1,5.3-5.5c2.3-1.4,5.1-2,7.8-2c2.8,0,5.3,0.6,7.7,2c2.3,1.2,4.1,3.2,5.3,5.5c1.4,2.4,2,5.2,1.8,8.1
		C614.8,156.2,614.8,156.8,614.6,157.2z M593.3,147.2c-1.8,1.7-2.9,3.8-3.1,6.3h19.3c-0.2-2.4-1.4-4.6-3.1-6.3
		c-1.8-1.7-4.1-2.4-6.5-2.4C597.5,144.7,595.1,145.4,593.3,147.2L593.3,147.2z"/>
	<path class="st1" d="M627.2,168.9c-2.3-1.2-4.3-3.2-5.7-5.5c-2.8-4.9-2.8-10.8,0-15.9c1.4-2.3,3.4-4.1,5.7-5.5c2.6-1.4,5.3-2,8.3-2
		c2.6,0,5.1,0.4,7.3,1.7c2.2,1,3.8,2.8,4.9,4.7l-4.1,2.8c-1-1.4-2.2-2.4-3.5-3.2c-1.4-0.8-3.1-1-4.6-1c-1.8,0-3.7,0.4-5.3,1.4
		c-1.6,1-2.9,2.2-3.7,3.7c-1,1.7-1.4,3.7-1.4,5.5c0,2,0.4,3.8,1.4,5.7c1,1.6,2.2,2.9,3.7,3.7c1.7,1,3.5,1.4,5.3,1.4
		c1.6,0,3.2-0.3,4.6-1c1.4-0.8,2.6-1.8,3.5-3.2l4.1,2.6c-1,2-2.9,3.7-4.9,4.7c-2.3,1-4.7,1.7-7.3,1.7
		C632.5,170.9,629.8,170.2,627.2,168.9z"/>
	<path class="st1" d="M664.2,141.5c2.2-1,4.5-1.4,6.7-1.4v5.3c-0.3,0-0.8,0-1.2,0c-2.6-0.2-5.1,0.8-6.9,2.6
		c-1.8,2.2-2.8,4.7-2.6,7.5v15h-5.5v-30.1h5.3v5.1C661.1,143.8,662.6,142.4,664.2,141.5z"/>
	<path class="st1" d="M706.3,140.5v30.1h-5.2V166c-1,1.6-2.6,2.8-4.3,3.7c-1.8,1-3.8,1.2-5.9,1.2c-3.5,0.2-6.9-1-9.5-3.4
		c-2.3-2.3-3.5-5.5-3.5-9.8v-17.2h5.5v16.7c-0.2,2.4,0.6,4.7,2.2,6.5c1.6,1.6,3.8,2.4,5.9,2.3c2.6,0.2,5.1-0.8,6.9-2.6
		c1.8-2,2.8-4.7,2.4-7.3v-15.5H706.3z"/>
	<path class="st1" d="M716.8,133.6c-0.8-0.6-1-1.6-1-2.4c0-1,0.3-1.8,1-2.4c0.8-0.8,1.7-1,2.6-1s2,0.3,2.6,1c0.8,0.6,1,1.6,1,2.4
		c0,2-1.6,3.7-3.5,3.7c0,0,0,0-0.2,0C718.5,134.6,717.5,134.3,716.8,133.6z M716.8,140.5h5.5v30.1h-5.5V140.5z"/>
	<path class="st1" d="M749.5,168.9c-1,0.8-1.8,1.2-2.9,1.6c-1.2,0.3-2.4,0.6-3.7,0.6c-2.6,0.2-5.2-0.8-7.1-2.4
		c-1.8-1.8-2.6-4.5-2.4-7.1v-16.5h-5.1v-4.5h5.1v-6.7h5.5v6.5h8.7v4.5h-8.9v16.4c-0.2,1.4,0.3,2.8,1.2,3.8c1,1,2.2,1.4,3.5,1.4
		c1.6,0,3.1-0.4,4.3-1.4L749.5,168.9z"/>
	<path class="st1" d="M803,143.5c2.3,2.2,3.4,5.5,3.4,9.8v17.3h-5.5v-16.7c0.2-2.4-0.6-4.7-2-6.5c-1.6-1.6-3.7-2.3-5.9-2.3
		c-2.4-0.2-4.9,0.8-6.5,2.6c-1.7,2-2.6,4.7-2.4,7.5v15.5h-5.5V154c0.2-2.4-0.6-4.7-2-6.5c-1.6-1.6-3.7-2.3-5.9-2.3
		c-2.4-0.2-4.9,0.8-6.5,2.6c-1.7,2-2.6,4.7-2.4,7.5v15.5h-5.5v-30.3h5.2v4.5c1-1.6,2.6-2.8,4.5-3.5c2-1,4-1.2,6.1-1.2
		c2.2,0,4.3,0.4,6.3,1.4c1.8,1,3.2,2.3,4.3,4.1c1.2-1.8,2.8-3.2,4.7-4.1c2.2-1,4.5-1.6,6.9-1.6C797.3,139.9,800.5,141.2,803,143.5z"
		/>
	<path class="st1" d="M843.7,157.2h-24.4c0.3,2.4,1.6,4.7,3.5,6.5c2.2,1.7,4.7,2.4,7.5,2.4c3.4,0.2,6.5-1.2,8.7-3.7l3.1,3.5
		c-1.4,1.7-3.1,2.9-5.1,3.7c-2.2,1-4.5,1.2-6.9,1.2c-2.9,0-5.9-0.6-8.4-2c-2.4-1.2-4.5-3.2-5.7-5.5c-2.6-4.9-2.6-10.8,0-15.9
		c1.2-2.3,3.1-4.1,5.3-5.5c2.3-1.4,5.1-2,7.8-2c2.8,0,5.3,0.6,7.7,2c2.3,1.2,4.1,3.2,5.3,5.5c1.4,2.4,2,5.2,1.8,8.1
		C843.8,156.2,843.7,156.8,843.7,157.2z M822.2,147.2c-1.8,1.7-2.9,3.8-3.1,6.3h19.3c-0.2-2.4-1.4-4.6-3.1-6.3
		c-1.8-1.7-4.1-2.4-6.5-2.4C826.6,144.7,824,145.4,822.2,147.2L822.2,147.2z"/>
	<path class="st1" d="M876.6,143.5c2.3,2.2,3.4,5.5,3.4,9.8v17.3h-5.5v-16.7c0.2-2.4-0.6-4.7-2.2-6.5c-1.7-1.6-3.8-2.3-5.9-2.3
		c-2.6-0.2-5.1,0.8-7.1,2.6c-1.8,2-2.8,4.7-2.6,7.5v15.5h-5.5v-30.2h5.2v4.6c1-1.6,2.6-2.8,4.5-3.7c2-1,4.3-1.2,6.5-1.2
		C870.7,139.9,874.1,141.2,876.6,143.5z"/>
	<path class="st1" d="M907.1,168.9c-1,0.8-1.8,1.2-2.9,1.6c-1.2,0.3-2.4,0.6-3.7,0.6c-2.6,0.2-5.2-0.8-7.1-2.4
		c-1.8-1.8-2.6-4.5-2.4-7.1v-16.5h-5.2v-4.5h5.1v-6.7h5.5v6.5h8.7v4.5h-8.7v16.4c-0.2,1.4,0.3,2.8,1.2,3.8c1,1,2.2,1.4,3.5,1.4
		c1.6,0,3.1-0.4,4.3-1.4L907.1,168.9z"/>
</g>
</svg>
